{
    "asset" : {
        "generator" : "Khronos glTF Blender I/O v3.3.27",
        "version" : "2.0"
    },
    "scene" : 0,
    "scenes" : [
        {
            "name" : "Scene",
            "nodes" : [
                0,1
            ]
        }
    ],
    "nodes" : [
        {
            "mesh" : 0,
            "name" : "basic-cube",
            "scale" : [
                1.9226266145706177,
                1,
                1
            ]
        },
        {
            "name" : "example-head-1",
            "translation": [
                0,
                0,
                0
            ],
            "extensions": {
                "OCES_eyes" : {
                    "head": true,
                    "enabled": true
                }
            },
            "children": [2,3,4]
        },
        {
            "name" : "example-point-ommatidial-eye",
            "extensions": {
                "OCES_eyes" : {
                    "eye" : 0,
                    "mirrorPlanes" : [0,2]
                }
            }
        },
        {
            "name" : "example-surface-based-eye",
            "extensions": {
                "OCES_eyes" : {
                    "eye" : 1,
                    "mirrorPlanes" : [0,2]
                }
            }
        },
        {
            "name" : "example-spherical-eye",
            "extensions": {
                "OCES_eyes" : {
                    "eye" : 2,
                    "mirrorPlanes" : [0,2]
                }
            }
        }
    ],
    "meshes" : [
        {
            "name" : "basic-cube",
            "primitives" : [
                {
                    "attributes" : {
                        "POSITION" : 0,
                        "NORMAL" : 1,
                        "TEXCOORD_0" : 2
                    },
                    "indices" : 3
                }
            ]
        }
    ],
    "accessors" : [
        {
            "bufferView" : 0,
            "componentType" : 5126,
            "count" : 24,
            "max" : [
                1,
                1,
                1
            ],
            "min" : [
                -1,
                -1,
                -1
            ],
            "type" : "VEC3"
        },
        {
            "bufferView" : 1,
            "componentType" : 5126,
            "count" : 24,
            "type" : "VEC3"
        },
        {
            "bufferView" : 2,
            "componentType" : 5126,
            "count" : 24,
            "type" : "VEC2"
        },
        {
            "bufferView" : 3,
            "componentType" : 5123,
            "count" : 36,
            "type" : "SCALAR"
        }
    ],
    "bufferViews" : [
        {
            "buffer" : 0,
            "byteLength" : 288,
            "byteOffset" : 0,
            "target" : 34962
        },
        {
            "buffer" : 0,
            "byteLength" : 288,
            "byteOffset" : 288,
            "target" : 34962
        },
        {
            "buffer" : 0,
            "byteLength" : 192,
            "byteOffset" : 576,
            "target" : 34962
        },
        {
            "buffer" : 0,
            "byteLength" : 72,
            "byteOffset" : 768,
            "target" : 34963
        },
        {
            "buffer" : 1,
            "byteLength" : 288,
            "byteOffset" : 840,
            "target" : 34962
        },
        {
            "buffer" : 1,
            "byteLength" : 72,
            "byteOffset" : 1128,
            "target" : 34962
        },
        {
            "buffer" : 1,
            "byteLength" : 288,
            "byteOffset" : 1200,
            "target" : 34962
        }
    ],
    "buffers" : [
        {
            "byteLength" : 840,
            "uri" : "data:application/octet-stream;base64,"
        },
        {
            "byteLength": 1488,
            "uri" : "examplehead.bin"
        }
    ],
    "extensionsUsed" : ["OCES_eyes"],
    "extensionsRequired": ["OCES_eyes"],
    "extensions": {
        "OCES_eyes": {
            "generator" : {"program": "OCES-eye-Editor", "version": "1.0.0"},
            "creationDatetime" : "2023-08-27 14:32:16.1",
            "version" : "0.4.0",
            "maximumRenderDistance": 500,
            

            "mirrorPlanes" : [
                { "position": [0,0,0], "normal": [0.747, 0.747, 0] },
                { "position": [2,1,0], "normal": [0, 0.747, 0.747] },
                { "normal": "DORSOVENTRAL" },
                { "normal": "Z" }
            ],

            "ommatidialProperties": [
                {
                    "type": "COARSE",
                    "value": 1.0
                },
                {
                    "type": "ACCESSOR",
                    "value": 1,
                    "dataStride": [[1,1],[1,1]]
                },
                {
                    "type": "TEXTURE",
                    "value": 1,
                    "textureScale": [1,1,1,1],
                    "textureCenter": [1,1,1,1]
                }
            ],

            "eyes" : [
                {
                    "name": "example point-ommatidial eye",
                    "type": "POINT_OMMATIDIAL",
                    "enabled": true,
                    "mirrorPlanes":[0,1],
                    "ommatidialProperties": {
                        "POSITION": [1,1,1],
                        "ORIENTATION": [1,1,1],
                        "DIAMETER": 1,
                        "FOCAL_OFFSET": -1
                    }
                },
                {
                    "name": "example surface ommatidial eye",
                    "type": "SURFACE",
                    "mirrorPlanes": [1,1],
                    "ommatidialCount": 1,
                    "surface": {
                        "POSITION": 1,
                        "NORMAL": 1,
                        "INDICES": 3,
                        "TEXTURE_COORD": 1,
                        "TEXTURE_INDICES": 1
                    },
                    "ommatidialProperties": {
                        "DIAMETER":"data:image/png;base64,",
                        "FOCAL_OFFSET": "data:image/png;base64,",
                        "DISPLACEMENT": "data:image/png;base64,",
                        "ABSOLUTE_ORIENTATION": [1,1,1]
                    }
                },
                {
                    "name": "example spherical ommatidial eye",
                    "type": "SPHERICAL",
                    "ommatidialCount": 1,
                    "radius": 1,
                    "ommatidialProperties":{
                        "OMMATIDIAL_BOUNDS": "data:image/png;base64,",
                        "DISPLACEMENT": "data:image/png;base64,",
                        "ABSOLUTE_ORIENTATION": [1,1,1]
                    }
                }
            ]
        }
    }
}
